<mxfile host="app.diagrams.net" modified="2022-04-01T08:51:49.942Z" agent="5.0 (Windows NT 10.0; Win64; x64) AppleWebKit/537.36 (KHTML, like Gecko) Chrome/99.0.4844.84 Safari/537.36" etag="zhQFDQPpcrHNHeKEf-nB" compressed="false" version="17.4.0" type="device">
  <diagram id="HxsvWi6zKSBS4S_dzaYf" name="Page-1">
    <mxGraphModel dx="1038" dy="489" grid="1" gridSize="10" guides="1" tooltips="1" connect="1" arrows="1" fold="1" page="1" pageScale="1" pageWidth="850" pageHeight="1100" math="0" shadow="0">
      <root>
        <mxCell id="0" />
        <mxCell id="1" parent="0" />
        <mxCell id="MTAZ1wnVPNHDyX6JgNtX-1" value="" style="rounded=0;whiteSpace=wrap;html=1;" parent="1" vertex="1">
          <mxGeometry x="120" y="80" width="120" height="70" as="geometry" />
        </mxCell>
        <mxCell id="MTAZ1wnVPNHDyX6JgNtX-2" value="" style="rounded=0;whiteSpace=wrap;html=1;" parent="1" vertex="1">
          <mxGeometry x="280" y="80" width="120" height="70" as="geometry" />
        </mxCell>
        <mxCell id="MTAZ1wnVPNHDyX6JgNtX-3" value="" style="rounded=0;whiteSpace=wrap;html=1;" parent="1" vertex="1">
          <mxGeometry x="440" y="80" width="120" height="70" as="geometry" />
        </mxCell>
        <mxCell id="MTAZ1wnVPNHDyX6JgNtX-4" value="" style="rounded=0;whiteSpace=wrap;html=1;" parent="1" vertex="1">
          <mxGeometry x="600" y="80" width="120" height="70" as="geometry" />
        </mxCell>
        <mxCell id="MTAZ1wnVPNHDyX6JgNtX-6" value="" style="rounded=0;whiteSpace=wrap;html=1;" parent="1" vertex="1">
          <mxGeometry x="120" y="240" width="130" height="100" as="geometry" />
        </mxCell>
        <mxCell id="MTAZ1wnVPNHDyX6JgNtX-8" value="" style="endArrow=classic;html=1;rounded=0;exitX=0.5;exitY=1;exitDx=0;exitDy=0;entryX=0.5;entryY=0;entryDx=0;entryDy=0;" parent="1" source="MTAZ1wnVPNHDyX6JgNtX-4" target="MTAZ1wnVPNHDyX6JgNtX-6" edge="1">
          <mxGeometry width="50" height="50" relative="1" as="geometry">
            <mxPoint x="400" y="320" as="sourcePoint" />
            <mxPoint x="450" y="270" as="targetPoint" />
            <Array as="points">
              <mxPoint x="660" y="190" />
              <mxPoint x="185" y="190" />
            </Array>
          </mxGeometry>
        </mxCell>
        <mxCell id="MTAZ1wnVPNHDyX6JgNtX-9" value="" style="endArrow=classic;html=1;rounded=0;exitX=1;exitY=0.5;exitDx=0;exitDy=0;entryX=0;entryY=0.5;entryDx=0;entryDy=0;" parent="1" source="MTAZ1wnVPNHDyX6JgNtX-6" target="MTAZ1wnVPNHDyX6JgNtX-14" edge="1">
          <mxGeometry width="50" height="50" relative="1" as="geometry">
            <mxPoint x="400" y="320" as="sourcePoint" />
            <mxPoint x="320" y="290" as="targetPoint" />
          </mxGeometry>
        </mxCell>
        <mxCell id="MTAZ1wnVPNHDyX6JgNtX-10" value="" style="endArrow=classic;html=1;rounded=0;exitX=1;exitY=0.5;exitDx=0;exitDy=0;entryX=0;entryY=0.5;entryDx=0;entryDy=0;" parent="1" source="MTAZ1wnVPNHDyX6JgNtX-1" target="MTAZ1wnVPNHDyX6JgNtX-2" edge="1">
          <mxGeometry width="50" height="50" relative="1" as="geometry">
            <mxPoint x="400" y="320" as="sourcePoint" />
            <mxPoint x="450" y="270" as="targetPoint" />
          </mxGeometry>
        </mxCell>
        <mxCell id="MTAZ1wnVPNHDyX6JgNtX-11" value="" style="endArrow=classic;html=1;rounded=0;exitX=1;exitY=0.5;exitDx=0;exitDy=0;" parent="1" source="MTAZ1wnVPNHDyX6JgNtX-2" target="MTAZ1wnVPNHDyX6JgNtX-3" edge="1">
          <mxGeometry width="50" height="50" relative="1" as="geometry">
            <mxPoint x="400" y="320" as="sourcePoint" />
            <mxPoint x="450" y="270" as="targetPoint" />
          </mxGeometry>
        </mxCell>
        <mxCell id="MTAZ1wnVPNHDyX6JgNtX-12" value="" style="endArrow=classic;html=1;rounded=0;exitX=1;exitY=0.5;exitDx=0;exitDy=0;" parent="1" source="MTAZ1wnVPNHDyX6JgNtX-3" target="MTAZ1wnVPNHDyX6JgNtX-4" edge="1">
          <mxGeometry width="50" height="50" relative="1" as="geometry">
            <mxPoint x="400" y="320" as="sourcePoint" />
            <mxPoint x="450" y="270" as="targetPoint" />
          </mxGeometry>
        </mxCell>
        <mxCell id="MTAZ1wnVPNHDyX6JgNtX-13" value="" style="ellipse;whiteSpace=wrap;html=1;aspect=fixed;" parent="1" vertex="1">
          <mxGeometry x="140" y="390" width="140" height="140" as="geometry" />
        </mxCell>
        <mxCell id="MTAZ1wnVPNHDyX6JgNtX-14" value="" style="rounded=0;whiteSpace=wrap;html=1;" parent="1" vertex="1">
          <mxGeometry x="320" y="240" width="130" height="100" as="geometry" />
        </mxCell>
        <mxCell id="MTAZ1wnVPNHDyX6JgNtX-15" value="" style="ellipse;whiteSpace=wrap;html=1;aspect=fixed;" parent="1" vertex="1">
          <mxGeometry x="315" y="390" width="140" height="140" as="geometry" />
        </mxCell>
        <mxCell id="MTAZ1wnVPNHDyX6JgNtX-16" value="" style="ellipse;whiteSpace=wrap;html=1;aspect=fixed;" parent="1" vertex="1">
          <mxGeometry x="490" y="390" width="140" height="140" as="geometry" />
        </mxCell>
        <mxCell id="MTAZ1wnVPNHDyX6JgNtX-17" value="" style="endArrow=classic;html=1;rounded=0;exitX=0.5;exitY=1;exitDx=0;exitDy=0;entryX=0.5;entryY=0;entryDx=0;entryDy=0;" parent="1" source="MTAZ1wnVPNHDyX6JgNtX-14" target="MTAZ1wnVPNHDyX6JgNtX-15" edge="1">
          <mxGeometry width="50" height="50" relative="1" as="geometry">
            <mxPoint x="400" y="420" as="sourcePoint" />
            <mxPoint x="450" y="370" as="targetPoint" />
          </mxGeometry>
        </mxCell>
        <mxCell id="MTAZ1wnVPNHDyX6JgNtX-18" value="" style="endArrow=classic;html=1;rounded=0;exitX=0.5;exitY=1;exitDx=0;exitDy=0;entryX=0.5;entryY=0;entryDx=0;entryDy=0;" parent="1" source="MTAZ1wnVPNHDyX6JgNtX-14" target="MTAZ1wnVPNHDyX6JgNtX-13" edge="1">
          <mxGeometry width="50" height="50" relative="1" as="geometry">
            <mxPoint x="400" y="420" as="sourcePoint" />
            <mxPoint x="450" y="370" as="targetPoint" />
            <Array as="points">
              <mxPoint x="385" y="360" />
              <mxPoint x="210" y="360" />
            </Array>
          </mxGeometry>
        </mxCell>
        <mxCell id="MTAZ1wnVPNHDyX6JgNtX-19" value="" style="rounded=0;whiteSpace=wrap;html=1;" parent="1" vertex="1">
          <mxGeometry x="282.5" y="570" width="205" height="90" as="geometry" />
        </mxCell>
        <mxCell id="MTAZ1wnVPNHDyX6JgNtX-20" value="" style="endArrow=classic;html=1;rounded=0;exitX=0.5;exitY=1;exitDx=0;exitDy=0;entryX=0.5;entryY=0;entryDx=0;entryDy=0;" parent="1" source="MTAZ1wnVPNHDyX6JgNtX-14" target="MTAZ1wnVPNHDyX6JgNtX-16" edge="1">
          <mxGeometry width="50" height="50" relative="1" as="geometry">
            <mxPoint x="400" y="420" as="sourcePoint" />
            <mxPoint x="450" y="370" as="targetPoint" />
            <Array as="points">
              <mxPoint x="385" y="360" />
              <mxPoint x="560" y="360" />
            </Array>
          </mxGeometry>
        </mxCell>
        <mxCell id="MTAZ1wnVPNHDyX6JgNtX-21" value="" style="endArrow=classic;html=1;rounded=0;exitX=0.5;exitY=1;exitDx=0;exitDy=0;entryX=0.5;entryY=0;entryDx=0;entryDy=0;" parent="1" source="MTAZ1wnVPNHDyX6JgNtX-15" target="MTAZ1wnVPNHDyX6JgNtX-19" edge="1">
          <mxGeometry width="50" height="50" relative="1" as="geometry">
            <mxPoint x="400" y="620" as="sourcePoint" />
            <mxPoint x="450" y="570" as="targetPoint" />
          </mxGeometry>
        </mxCell>
        <mxCell id="MTAZ1wnVPNHDyX6JgNtX-22" value="" style="endArrow=classic;html=1;rounded=0;exitX=0.5;exitY=1;exitDx=0;exitDy=0;entryX=0;entryY=0.5;entryDx=0;entryDy=0;" parent="1" source="MTAZ1wnVPNHDyX6JgNtX-13" target="MTAZ1wnVPNHDyX6JgNtX-19" edge="1">
          <mxGeometry width="50" height="50" relative="1" as="geometry">
            <mxPoint x="400" y="620" as="sourcePoint" />
            <mxPoint x="450" y="570" as="targetPoint" />
            <Array as="points">
              <mxPoint x="210" y="615" />
            </Array>
          </mxGeometry>
        </mxCell>
        <mxCell id="MTAZ1wnVPNHDyX6JgNtX-23" value="" style="endArrow=classic;html=1;rounded=0;exitX=0.5;exitY=1;exitDx=0;exitDy=0;entryX=1;entryY=0.5;entryDx=0;entryDy=0;" parent="1" source="MTAZ1wnVPNHDyX6JgNtX-16" target="MTAZ1wnVPNHDyX6JgNtX-19" edge="1">
          <mxGeometry width="50" height="50" relative="1" as="geometry">
            <mxPoint x="400" y="620" as="sourcePoint" />
            <mxPoint x="450" y="570" as="targetPoint" />
            <Array as="points">
              <mxPoint x="560" y="615" />
            </Array>
          </mxGeometry>
        </mxCell>
        <mxCell id="MTAZ1wnVPNHDyX6JgNtX-24" value="Login/&lt;br&gt;Signup" style="text;html=1;resizable=0;autosize=1;align=center;verticalAlign=middle;points=[];fillColor=none;strokeColor=none;rounded=0;" parent="1" vertex="1">
          <mxGeometry x="155" y="100" width="50" height="30" as="geometry" />
        </mxCell>
        <mxCell id="MTAZ1wnVPNHDyX6JgNtX-25" value="Read parameters&lt;br&gt;Appliance used/&lt;br&gt;Load used" style="text;html=1;resizable=0;autosize=1;align=center;verticalAlign=middle;points=[];fillColor=none;strokeColor=none;rounded=0;" parent="1" vertex="1">
          <mxGeometry x="285" y="90" width="110" height="50" as="geometry" />
        </mxCell>
        <mxCell id="MTAZ1wnVPNHDyX6JgNtX-26" value="Read used details&lt;br&gt;Area, meter&lt;br&gt;numbers" style="text;html=1;resizable=0;autosize=1;align=center;verticalAlign=middle;points=[];fillColor=none;strokeColor=none;rounded=0;" parent="1" vertex="1">
          <mxGeometry x="445" y="90" width="110" height="50" as="geometry" />
        </mxCell>
        <mxCell id="MTAZ1wnVPNHDyX6JgNtX-27" value="Calculate" style="text;html=1;resizable=0;autosize=1;align=center;verticalAlign=middle;points=[];fillColor=none;strokeColor=none;rounded=0;" parent="1" vertex="1">
          <mxGeometry x="625" y="105" width="70" height="20" as="geometry" />
        </mxCell>
        <mxCell id="MTAZ1wnVPNHDyX6JgNtX-28" value="Energy Consumed,&lt;br&gt;Total load&amp;nbsp;&lt;br&gt;Units consumed" style="text;html=1;resizable=0;autosize=1;align=center;verticalAlign=middle;points=[];fillColor=none;strokeColor=none;rounded=0;" parent="1" vertex="1">
          <mxGeometry x="125" y="265" width="120" height="50" as="geometry" />
        </mxCell>
        <mxCell id="MTAZ1wnVPNHDyX6JgNtX-29" value="Choice:&lt;br&gt;Agriculture/&lt;br&gt;Residential/&lt;br&gt;Commercial." style="text;html=1;resizable=0;autosize=1;align=center;verticalAlign=middle;points=[];fillColor=none;strokeColor=none;rounded=0;" parent="1" vertex="1">
          <mxGeometry x="345" y="260" width="80" height="60" as="geometry" />
        </mxCell>
        <mxCell id="MTAZ1wnVPNHDyX6JgNtX-30" value="Display&lt;br&gt;Cost, Units/month" style="text;html=1;resizable=0;autosize=1;align=center;verticalAlign=middle;points=[];fillColor=none;strokeColor=none;rounded=0;" parent="1" vertex="1">
          <mxGeometry x="330" y="600" width="110" height="30" as="geometry" />
        </mxCell>
        <mxCell id="MTAZ1wnVPNHDyX6JgNtX-31" value="Calculate&lt;br&gt;Price for Agriculture&amp;nbsp;&lt;br&gt;people based on&amp;nbsp;&lt;br&gt;units consumed" style="text;html=1;resizable=0;autosize=1;align=center;verticalAlign=middle;points=[];fillColor=none;strokeColor=none;rounded=0;" parent="1" vertex="1">
          <mxGeometry x="150" y="430" width="120" height="60" as="geometry" />
        </mxCell>
        <mxCell id="MTAZ1wnVPNHDyX6JgNtX-32" value="Calculate&lt;br&gt;Price for Residential&amp;nbsp;&lt;br&gt;people based on&amp;nbsp;&lt;br&gt;units consumed" style="text;html=1;resizable=0;autosize=1;align=center;verticalAlign=middle;points=[];fillColor=none;strokeColor=none;rounded=0;" parent="1" vertex="1">
          <mxGeometry x="320" y="430" width="130" height="60" as="geometry" />
        </mxCell>
        <mxCell id="MTAZ1wnVPNHDyX6JgNtX-33" value="Calculate&lt;br&gt;Price for Commercial&amp;nbsp;&lt;br&gt;people based on&amp;nbsp;&lt;br&gt;units consumed" style="text;html=1;resizable=0;autosize=1;align=center;verticalAlign=middle;points=[];fillColor=none;strokeColor=none;rounded=0;" parent="1" vertex="1">
          <mxGeometry x="495" y="430" width="130" height="60" as="geometry" />
        </mxCell>
      </root>
    </mxGraphModel>
  </diagram>
</mxfile>
